<svg width="66" height="20" viewBox="0 0 66 20" fill="none" xmlns="http://www.w3.org/2000/svg">
<path d="M47.7798 0.870112C46.2682 0.319307 44.6704 0.0429103 43.0616 0.0539367C37.8589 0.0539367 34.1844 2.67481 34.1584 6.43702C34.1259 9.20097 36.7695 10.7585 38.7693 11.682C40.8212 12.6315 41.5073 13.2298 41.5008 14.0785C41.4878 15.3694 39.8619 15.9548 38.3499 15.9548C36.272 15.9548 35.1372 15.6653 33.391 14.9402L32.7439 14.6378L32.0058 18.9691C33.2707 19.4959 35.5502 19.9478 37.9044 19.9869C43.4355 19.9869 47.0514 17.3822 47.0937 13.3794C47.1392 11.1715 45.7085 9.50338 42.6974 8.12466C40.8667 7.23044 39.7318 6.63213 39.7318 5.7249C39.7318 4.92173 40.7041 4.06328 42.7364 4.06328C44.089 4.03056 45.4332 4.28433 46.6807 4.80792L47.1685 5.02579L47.9066 0.840847L47.7798 0.870112ZM61.2809 0.40512H57.2162C55.9513 0.40512 54.9986 0.753052 54.4458 2.00821L46.6287 19.717H52.1598L53.2654 16.8132L60.016 16.8197C60.1753 17.4993 60.663 19.717 60.663 19.717H65.5406L61.2809 0.40512ZM26.6763 0.242534H31.9473L28.6501 19.5641H23.3855L26.6763 0.236031V0.242534ZM13.2955 10.8919L13.8418 13.5745L18.9925 0.40512H24.5757L16.2806 19.691H10.7104L6.15804 3.36091C6.08431 3.09165 5.91115 2.86039 5.67353 2.71383C4.03273 1.86623 2.29419 1.22301 0.496826 0.798573L0.568363 0.392111H9.05205C10.2032 0.437635 11.1299 0.798574 11.4388 2.02772L13.2923 10.9016V10.8919H13.2955ZM54.7775 12.8624L56.8781 7.45806C56.8521 7.51659 57.3105 6.34272 57.5772 5.6176L57.9381 7.28572L59.1575 12.8591H54.7742V12.8624H54.7775Z" fill="#D9D9D9"/>
</svg>
