<svg width="128" height="128" viewBox="0 0 128 128" fill="none" xmlns="http://www.w3.org/2000/svg">
<mask id="path-1-inside-1_195_37" fill="white">
<path d="M58 19.9459C58 15.1752 53.818 11.419 49.233 12.7372C26.9604 19.1411 10.6665 39.6671 10.6665 64C10.6665 88.3329 26.9604 108.859 49.233 115.263C53.818 116.581 58 112.825 58 108.054V83.9432C58 81.8215 57.1571 79.7866 55.6569 78.2864L45.1412 67.7707C44.1413 66.7705 43.5796 65.4142 43.5796 64C43.5796 62.5858 44.1413 61.2295 45.1412 60.2293L55.6569 49.7136C57.1571 48.2134 58 46.1785 58 44.0568V19.9459Z"/>
<path d="M70 83.9429C70 81.8211 70.8429 79.7863 72.3431 78.286L82.8585 67.7707C83.8583 66.7705 84.42 65.4142 84.42 64C84.42 62.5858 83.8583 61.2295 82.8585 60.2293L72.3431 49.714C70.8429 48.2137 70 46.1789 70 44.0571V19.946C70 15.1752 74.1821 11.419 78.767 12.7374C101.039 19.1414 117.333 39.6673 117.333 64C117.333 88.3327 101.039 108.859 78.767 115.263C74.1821 116.581 70 112.825 70 108.054V83.9429Z"/>
</mask>
<path d="M45.1412 67.7707L41.6051 71.3057L41.6056 71.3062L45.1412 67.7707ZM45.1412 60.2293L41.6056 56.6938L41.6051 56.6943L45.1412 60.2293ZM82.8585 67.7707L86.394 71.3062L86.3946 71.3057L82.8585 67.7707ZM82.8585 60.2293L86.3946 56.6943L86.394 56.6938L82.8585 60.2293ZM78.767 115.263L77.3854 110.457L78.767 115.263ZM72.3431 78.286L68.8076 74.7505L72.3431 78.286ZM55.6569 78.2864L52.1213 81.8219L55.6569 78.2864ZM15.6665 64C15.6665 41.9555 30.4273 23.3469 50.6146 17.5426L47.8514 7.93193C23.4936 14.9354 5.6665 37.3788 5.6665 64H15.6665ZM50.6146 110.457C30.4273 104.653 15.6665 86.0445 15.6665 64H5.6665C5.6665 90.6212 23.4936 113.065 47.8514 120.068L50.6146 110.457ZM63 108.054V83.9432H53V108.054H63ZM41.6056 71.3062L52.1213 81.8219L59.1924 74.7508L48.6767 64.2351L41.6056 71.3062ZM38.5796 64C38.5796 66.74 39.6679 69.3679 41.6051 71.3057L48.6772 64.2357C48.6147 64.1732 48.5796 64.0884 48.5796 64H38.5796ZM41.6051 56.6943C39.6679 58.6321 38.5796 61.26 38.5796 64H48.5796C48.5796 63.9116 48.6147 63.8268 48.6772 63.7643L41.6051 56.6943ZM52.1213 46.1781L41.6056 56.6938L48.6767 63.7649L59.1924 53.2492L52.1213 46.1781ZM63 44.0568V19.9459H53V44.0568H63ZM75.8787 81.8216L86.394 71.3062L79.323 64.2351L68.8076 74.7505L75.8787 81.8216ZM86.3946 71.3057C88.3318 69.3679 89.42 66.74 89.42 64H79.42C79.42 64.0884 79.3849 64.1732 79.3224 64.2357L86.3946 71.3057ZM89.42 64C89.42 61.26 88.3318 58.6321 86.3946 56.6943L79.3224 63.7643C79.3849 63.8269 79.42 63.9116 79.42 64H89.42ZM86.394 56.6938L75.8787 46.1784L68.8076 53.2495L79.323 63.7649L86.394 56.6938ZM65 19.946V44.0571H75V19.946H65ZM77.3854 17.5427C97.5726 23.3471 112.333 41.9556 112.333 64H122.333C122.333 37.3789 104.506 14.9356 80.1487 7.93205L77.3854 17.5427ZM112.333 64C112.333 86.0444 97.5726 104.653 77.3854 110.457L80.1487 120.068C104.506 113.064 122.333 90.6211 122.333 64H112.333ZM65 83.9429V108.054H75V83.9429H65ZM77.3854 110.457C76.8232 110.619 76.34 110.503 75.8952 110.126C75.4031 109.709 75 108.975 75 108.054H65C65 115.503 71.772 122.477 80.1487 120.068L77.3854 110.457ZM68.8076 74.7505C66.3696 77.1885 65 80.4951 65 83.9429H75C75 83.1472 75.3161 82.3842 75.8787 81.8216L68.8076 74.7505ZM63 83.9432C63 80.4954 61.6304 77.1888 59.1924 74.7508L52.1213 81.8219C52.6839 82.3845 53 83.1476 53 83.9432H63ZM59.1924 53.2492C61.6304 50.8112 63 47.5046 63 44.0568H53C53 44.8524 52.6839 45.6155 52.1213 46.1781L59.1924 53.2492ZM75 19.946C75 19.0247 75.4031 18.2907 75.8952 17.8741C76.34 17.4974 76.8232 17.381 77.3854 17.5427L80.1487 7.93205C71.772 5.52348 65 12.4971 65 19.946H75ZM47.8514 120.068C56.2281 122.477 63 115.503 63 108.054H53C53 108.975 52.5969 109.709 52.1048 110.126C51.66 110.503 51.1769 110.619 50.6146 110.457L47.8514 120.068ZM75.8787 46.1784C75.3161 45.6158 75 44.8528 75 44.0571H65C65 47.5049 66.3696 50.8115 68.8076 53.2495L75.8787 46.1784ZM50.6146 17.5426C51.1769 17.3809 51.66 17.4974 52.1048 17.874C52.5969 18.2906 53 19.0246 53 19.9459H63C63 12.4971 56.2281 5.52343 47.8514 7.93193L50.6146 17.5426Z" fill="white" mask="url(#path-1-inside-1_195_37)"/>
</svg>
