<svg width="387" height="106" viewBox="0 0 387 106" fill="none" xmlns="http://www.w3.org/2000/svg">
<path d="M155.64 76C154.613 76 153.75 75.65 153.05 74.95C152.35 74.25 152 73.3867 152 72.36V24.97C152 23.8967 152.35 23.0333 153.05 22.38C153.75 21.68 154.613 21.33 155.64 21.33H168.31C172.323 21.33 175.963 22.0067 179.23 23.36C182.543 24.6667 185.413 26.5567 187.84 29.03C190.267 31.4567 192.133 34.3267 193.44 37.64C194.747 40.9533 195.4 44.6167 195.4 48.63C195.4 52.6433 194.747 56.33 193.44 59.69C192.133 63.0033 190.267 65.8967 187.84 68.37C185.413 70.7967 182.543 72.6867 179.23 74.04C175.963 75.3467 172.323 76 168.31 76H155.64ZM159.28 69.56H168.31C172.23 69.56 175.683 68.6733 178.67 66.9C181.703 65.08 184.083 62.6067 185.81 59.48C187.537 56.3067 188.4 52.69 188.4 48.63C188.4 44.5233 187.537 40.9067 185.81 37.78C184.083 34.6533 181.703 32.2033 178.67 30.43C175.683 28.6567 172.23 27.77 168.31 27.77H159.28V69.56ZM210.394 76C209.368 76 208.504 75.6733 207.804 75.02C207.151 74.32 206.824 73.4567 206.824 72.43V41.28C206.824 40.2067 207.151 39.3433 207.804 38.69C208.504 38.0367 209.368 37.71 210.394 37.71C211.468 37.71 212.331 38.0367 212.984 38.69C213.638 39.3433 213.964 40.2067 213.964 41.28V72.43C213.964 73.4567 213.638 74.32 212.984 75.02C212.331 75.6733 211.468 76 210.394 76ZM210.394 31.48C209.134 31.48 208.038 31.0367 207.104 30.15C206.218 29.2167 205.774 28.12 205.774 26.86C205.774 25.6 206.218 24.5267 207.104 23.64C208.038 22.7067 209.134 22.24 210.394 22.24C211.654 22.24 212.728 22.7067 213.614 23.64C214.548 24.5267 215.014 25.6 215.014 26.86C215.014 28.12 214.548 29.2167 213.614 30.15C212.728 31.0367 211.654 31.48 210.394 31.48ZM259.587 76.07C258.561 76.07 257.697 75.7433 256.997 75.09C256.344 74.39 256.017 73.5267 256.017 72.5V55.28C256.017 52.62 255.527 50.45 254.547 48.77C253.567 47.09 252.237 45.8533 250.557 45.06C248.924 44.22 247.034 43.8 244.887 43.8C242.927 43.8 241.154 44.1967 239.567 44.99C237.981 45.7833 236.721 46.8567 235.787 48.21C234.854 49.5167 234.387 51.0333 234.387 52.76H229.977C229.977 49.82 230.677 47.2067 232.077 44.92C233.524 42.5867 235.484 40.7433 237.957 39.39C240.431 38.0367 243.207 37.36 246.287 37.36C249.507 37.36 252.377 38.06 254.897 39.46C257.464 40.8133 259.471 42.82 260.917 45.48C262.411 48.14 263.157 51.4067 263.157 55.28V72.5C263.157 73.5267 262.807 74.39 262.107 75.09C261.454 75.7433 260.614 76.07 259.587 76.07ZM230.817 76.07C229.791 76.07 228.927 75.7433 228.227 75.09C227.574 74.39 227.247 73.5267 227.247 72.5V41.28C227.247 40.2067 227.574 39.3433 228.227 38.69C228.927 38.0367 229.791 37.71 230.817 37.71C231.891 37.71 232.754 38.0367 233.407 38.69C234.061 39.3433 234.387 40.2067 234.387 41.28V72.5C234.387 73.5267 234.061 74.39 233.407 75.09C232.754 75.7433 231.891 76.07 230.817 76.07ZM292.322 76.28C288.682 76.28 285.392 75.44 282.452 73.76C279.559 72.0333 277.249 69.7 275.522 66.76C273.842 63.82 273.002 60.5067 273.002 56.82C273.002 53.1333 273.772 49.8433 275.312 46.95C276.899 44.01 279.045 41.7 281.752 40.02C284.459 38.2933 287.515 37.43 290.922 37.43C293.675 37.43 296.219 38.0133 298.552 39.18C300.885 40.3 302.845 41.84 304.432 43.8V24.9C304.432 23.8267 304.759 22.9633 305.412 22.31C306.112 21.6567 306.975 21.33 308.002 21.33C309.075 21.33 309.939 21.6567 310.592 22.31C311.245 22.9633 311.572 23.8267 311.572 24.9V56.82C311.572 60.5067 310.709 63.82 308.982 66.76C307.302 69.7 305.015 72.0333 302.122 73.76C299.229 75.44 295.962 76.28 292.322 76.28ZM292.322 69.98C294.702 69.98 296.825 69.42 298.692 68.3C300.559 67.1333 302.029 65.5467 303.102 63.54C304.175 61.5333 304.712 59.2933 304.712 56.82C304.712 54.3 304.175 52.06 303.102 50.1C302.029 48.14 300.559 46.6 298.692 45.48C296.825 44.3133 294.702 43.73 292.322 43.73C289.989 43.73 287.865 44.3133 285.952 45.48C284.085 46.6 282.592 48.14 281.472 50.1C280.399 52.06 279.862 54.3 279.862 56.82C279.862 59.2933 280.399 61.5333 281.472 63.54C282.592 65.5467 284.085 67.1333 285.952 68.3C287.865 69.42 289.989 69.98 292.322 69.98ZM328.451 76C327.424 76 326.561 75.6733 325.861 75.02C325.208 74.32 324.881 73.4567 324.881 72.43V41.28C324.881 40.2067 325.208 39.3433 325.861 38.69C326.561 38.0367 327.424 37.71 328.451 37.71C329.524 37.71 330.388 38.0367 331.041 38.69C331.694 39.3433 332.021 40.2067 332.021 41.28V72.43C332.021 73.4567 331.694 74.32 331.041 75.02C330.388 75.6733 329.524 76 328.451 76ZM328.451 31.48C327.191 31.48 326.094 31.0367 325.161 30.15C324.274 29.2167 323.831 28.12 323.831 26.86C323.831 25.6 324.274 24.5267 325.161 23.64C326.094 22.7067 327.191 22.24 328.451 22.24C329.711 22.24 330.784 22.7067 331.671 23.64C332.604 24.5267 333.071 25.6 333.071 26.86C333.071 28.12 332.604 29.2167 331.671 30.15C330.784 31.0367 329.711 31.48 328.451 31.48ZM377.644 76.07C376.617 76.07 375.754 75.7433 375.054 75.09C374.401 74.39 374.074 73.5267 374.074 72.5V55.28C374.074 52.62 373.584 50.45 372.604 48.77C371.624 47.09 370.294 45.8533 368.614 45.06C366.981 44.22 365.091 43.8 362.944 43.8C360.984 43.8 359.211 44.1967 357.624 44.99C356.037 45.7833 354.777 46.8567 353.844 48.21C352.911 49.5167 352.444 51.0333 352.444 52.76H348.034C348.034 49.82 348.734 47.2067 350.134 44.92C351.581 42.5867 353.541 40.7433 356.014 39.39C358.487 38.0367 361.264 37.36 364.344 37.36C367.564 37.36 370.434 38.06 372.954 39.46C375.521 40.8133 377.527 42.82 378.974 45.48C380.467 48.14 381.214 51.4067 381.214 55.28V72.5C381.214 73.5267 380.864 74.39 380.164 75.09C379.511 75.7433 378.671 76.07 377.644 76.07ZM348.874 76.07C347.847 76.07 346.984 75.7433 346.284 75.09C345.631 74.39 345.304 73.5267 345.304 72.5V41.28C345.304 40.2067 345.631 39.3433 346.284 38.69C346.984 38.0367 347.847 37.71 348.874 37.71C349.947 37.71 350.811 38.0367 351.464 38.69C352.117 39.3433 352.444 40.2067 352.444 41.28V72.5C352.444 73.5267 352.117 74.39 351.464 75.09C350.811 75.7433 349.947 76.07 348.874 76.07Z" fill="white"/>
<path d="M47.3335 8.94552C47.3335 4.1748 43.1515 0.418593 38.5665 1.73688C16.2939 8.14076 0 28.6668 0 52.9996C0 77.3325 16.2939 97.8585 38.5665 104.262C43.1515 105.581 47.3335 101.824 47.3335 97.0537V72.9428C47.3335 70.8211 46.4906 68.7863 44.9903 67.286L34.4747 56.7703C33.4748 55.7702 32.9131 54.4138 32.9131 52.9996C32.9131 51.5854 33.4748 50.2291 34.4747 49.229L44.9904 38.7133C46.4906 37.213 47.3335 35.1782 47.3335 33.0564V8.94552Z" fill="white"/>
<path d="M59.3335 72.9425C59.3335 70.8208 60.1764 68.7859 61.6766 67.2856L72.192 56.7703C73.1918 55.7702 73.7535 54.4138 73.7535 52.9996C73.7535 51.5854 73.1918 50.2291 72.192 49.229L61.6766 38.7136C60.1763 37.2133 59.3335 35.1785 59.3335 33.0568V8.94562C59.3335 4.17487 63.5156 0.418664 68.1005 1.73699C90.3729 8.141 106.667 28.6669 106.667 52.9996C106.667 77.3324 90.3729 97.8583 68.1005 104.262C63.5156 105.581 59.3335 101.824 59.3335 97.0536V72.9425Z" fill="#B1A7EE"/>
</svg>
