<?xml version="1.0" standalone="no"?><svg xmlns:xlink="http://www.w3.org/1999/xlink" xmlns="http://www.w3.org/2000/svg" viewBox="0 0 1000 636.3752068219421" preserveAspectRatio="xMaxYMax slice"><g transform="scale(1.928409717642249)"><rect x="0" y="0" width="518.5714285714286" height="330" fill="#582f7f"/><rect x="0" y="0" width="47.14" height="47.14" fill="#6251a5"/><path d="M 0 0 A 47.14 47.14 0 0 0 47.14 47.14 L 47.14 0" fill="#22255e"/><rect x="47.14" y="0" width="47.14" height="47.14" fill="#293988"/><path d="M 47.14 0 A 47.14 47.14 0 0 1  94.28 47.14 L 47.14 0 A 47.14 47.14 0 0 0 94.28 47.14" fill="#593384"/><rect x="94.29" y="0" width="47.14" height="47.14" fill="#0c2151"/><path d="M 94.29 0 A 47.14 47.14 0 0 1 141.43 47.14 L 94.29 47.14" fill="#03418f"/><rect x="141.43" y="0" width="47.14" height="47.14" fill="#604a9e"/><path d="M 141.43 0 A 47.14 47.14 0 0 1  188.57 47.14 L 141.43 0 A 47.14 47.14 0 0 0 188.57 47.14" fill="#0d2152"/><rect x="188.57" y="0" width="47.14" height="47.14" fill="#6355aa"/><path d="M 188.57 0 A 47.14 47.14 0 0 1  235.70999999999998 47.14 L 188.57 0 A 47.14 47.14 0 0 0 235.70999999999998 47.14" fill="#113e8d"/><rect x="235.71" y="0" width="47.14" height="47.14" fill="#0f2253"/><path d="M 235.71 47.14 A 47.14 47.14 0 0 1  282.85 0 L 235.71 47.14 A 47.14 47.14 0 0 0 282.85 0" fill="#4a3282"/><rect x="282.86" y="0" width="47.14" height="47.14" fill="#0b2151"/><path d="M 282.86 0 A 47.14 47.14 0 0 1  330 47.14 L 282.86 0 A 47.14 47.14 0 0 0 330 47.14" fill="#233b89"/><rect x="330" y="0" width="47.14" height="47.14" fill="#2c3887"/><path d="M 330 0 A 47.14 47.14 0 0 1 377.14 47.14 L 330 47.14" fill="#6354aa"/><rect x="377.14" y="0" width="47.14" height="47.14" fill="#5a3687"/><path d="M 377.14 0 A 47.14 47.14 0 0 1  424.28 47.14 L 377.14 0 A 47.14 47.14 0 0 0 424.28 47.14" fill="#1b245a"/><rect x="424.29" y="0" width="47.14" height="47.14" fill="#4b3281"/><path d="M 424.29 0 A 47.14 47.14 0 0 1 471.43 47.14 L 424.29 47.14" fill="#332869"/><rect x="471.43" y="0" width="47.14" height="47.14" fill="#5b388a"/><path d="M 471.43 0 A 47.14 47.14 0 0 1  518.57 47.14 L 471.43 0 A 47.14 47.14 0 0 0 518.57 47.14" fill="#303887"/><rect x="0" y="47.14" width="47.14" height="47.14" fill="#2d3887"/><path d="M 0 94.28 A 47.14 47.14 0 0 1  47.14 47.14 L 47.14 94.28" fill="#5a3585"/><rect x="47.14" y="47.14" width="47.14" height="47.14" fill="#442b73"/><path d="M 47.14 47.14 A 47.14 47.14 0 0 1 94.28 94.28 L 47.14 94.28" fill="#303887"/><rect x="94.29" y="47.14" width="47.14" height="47.14" fill="#402b71"/><path d="M 94.29 94.28 A 47.14 47.14 0 0 1  141.43 47.14 L 94.29 94.28 A 47.14 47.14 0 0 0 141.43 47.14" fill="#5b398b"/><rect x="141.43" y="47.14" width="47.14" height="47.14" fill="#1e245c"/><path d="M 141.43 94.28 A 47.14 47.14 0 0 0 188.57 47.14 L 141.43 47.14" fill="#532e7c"/><rect x="188.57" y="47.14" width="47.14" height="47.14" fill="#223b89"/><path d="M 188.57 47.14 A 47.14 47.14 0 0 1 235.70999999999998 94.28 L 188.57 94.28" fill="#142356"/><rect x="235.71" y="47.14" width="47.14" height="47.14" fill="#423483"/><path d="M 235.71 47.14 A 47.14 47.14 0 0 0 282.85 94.28 L 282.85 47.14" fill="#322868"/><rect x="282.86" y="47.14" width="47.14" height="47.14" fill="#4c2d78"/><path d="M 282.86 47.14 A 47.14 47.14 0 0 1  330 94.28 L 282.86 47.14 A 47.14 47.14 0 0 0 330 94.28" fill="#522e7b"/><rect x="330" y="47.14" width="47.14" height="47.14" fill="#583080"/><path d="M 330 94.28 A 47.14 47.14 0 0 1  377.14 47.14 L 330 94.28 A 47.14 47.14 0 0 0 377.14 47.14" fill="#4c3281"/><rect x="377.14" y="47.14" width="47.14" height="47.14" fill="#6251a6"/><path d="M 377.14 47.14 A 47.14 47.14 0 0 0 424.28 94.28 L 424.28 47.14" fill="#2c3988"/><rect x="424.29" y="47.14" width="47.14" height="47.14" fill="#5a3788"/><path d="M 424.29 94.28 A 47.14 47.14 0 0 0 471.43 47.14 L 424.29 47.14" fill="#3b2a6d"/><rect x="471.43" y="47.14" width="47.14" height="47.14" fill="#593384"/><path d="M 471.43 47.14 A 47.14 47.14 0 0 1  518.57 94.28 L 471.43 47.14 A 47.14 47.14 0 0 0 518.57 94.28" fill="#453383"/><rect x="0" y="94.29" width="47.14" height="47.14" fill="#583080"/><path d="M 0 94.29 A 47.14 47.14 0 0 1  47.14 141.43 L 0 94.29 A 47.14 47.14 0 0 0 47.14 141.43" fill="#35296a"/><rect x="47.14" y="94.29" width="47.14" height="47.14" fill="#0b2150"/><path d="M 47.14 94.29 A 47.14 47.14 0 0 1 94.28 141.43 L 47.14 141.43" fill="#5e4295"/><rect x="94.29" y="94.29" width="47.14" height="47.14" fill="#5d4193"/><path d="M 94.29 141.43 A 47.14 47.14 0 0 0 141.43 94.29 L 94.29 94.29" fill="#463382"/><rect x="141.43" y="94.29" width="47.14" height="47.14" fill="#1a3c8b"/><path d="M 141.43 141.43 A 47.14 47.14 0 0 1  188.57 94.29 L 141.43 141.43 A 47.14 47.14 0 0 0 188.57 94.29" fill="#193d8b"/><rect x="188.57" y="94.29" width="47.14" height="47.14" fill="#08214f"/><path d="M 188.57 94.29 A 47.14 47.14 0 0 0 235.70999999999998 141.43 L 235.70999999999998 94.29" fill="#593282"/><rect x="235.71" y="94.29" width="47.14" height="47.14" fill="#523080"/><path d="M 235.71 94.29 A 47.14 47.14 0 0 1 282.85 141.43 L 235.71 141.43" fill="#492c76"/><rect x="282.86" y="94.29" width="47.14" height="47.14" fill="#37296b"/><path d="M 282.86 94.29 A 47.14 47.14 0 0 0 330 141.43 L 330 94.29" fill="#2d3887"/><rect x="330" y="94.29" width="47.14" height="47.14" fill="#06204e"/><path d="M 330 94.29 A 47.14 47.14 0 0 1  377.14 141.43 L 330 94.29 A 47.14 47.14 0 0 0 377.14 141.43" fill="#1a3c8b"/><rect x="377.14" y="94.29" width="47.14" height="47.14" fill="#113e8d"/><path d="M 377.14 94.29 A 47.14 47.14 0 0 1  424.28 141.43 L 377.14 94.29 A 47.14 47.14 0 0 0 424.28 141.43" fill="#1d245c"/><rect x="424.29" y="94.29" width="47.14" height="47.14" fill="#0b408e"/><path d="M 424.29 94.29 A 47.14 47.14 0 0 0 471.43 141.43 L 471.43 94.29" fill="#1e245c"/><rect x="471.43" y="94.29" width="47.14" height="47.14" fill="#183d8b"/><path d="M 471.43 141.43 A 47.14 47.14 0 0 0 518.57 94.29 L 471.43 94.29" fill="#5d4093"/><rect x="0" y="141.43" width="47.14" height="47.14" fill="#593283"/><path d="M 0 188.57 A 47.14 47.14 0 0 1  47.14 141.43 L 47.14 188.57" fill="#133e8c"/><rect x="47.14" y="141.43" width="47.14" height="47.14" fill="#412b71"/><path d="M 47.14 141.43 A 47.14 47.14 0 0 1  94.28 188.57 L 47.14 141.43 A 47.14 47.14 0 0 0 94.28 188.57" fill="#2a3988"/><rect x="94.29" y="141.43" width="47.14" height="47.14" fill="#09214f"/><path d="M 94.29 141.43 A 47.14 47.14 0 0 0 141.43 188.57 L 141.43 141.43" fill="#112254"/><rect x="141.43" y="141.43" width="47.14" height="47.14" fill="#513080"/><path d="M 141.43 188.57 A 47.14 47.14 0 0 1  188.57 141.43 L 188.57 188.57" fill="#5e4295"/><rect x="188.57" y="141.43" width="47.14" height="47.14" fill="#1e255c"/><path d="M 188.57 141.43 A 47.14 47.14 0 0 0 235.70999999999998 188.57 L 235.70999999999998 141.43" fill="#5d4093"/><rect x="235.71" y="141.43" width="47.14" height="47.14" fill="#4a2d77"/><path d="M 235.71 188.57 A 47.14 47.14 0 0 1  282.85 141.43 L 282.85 188.57" fill="#2b3988"/><rect x="282.86" y="141.43" width="47.14" height="47.14" fill="#523080"/><path d="M 282.86 141.43 A 47.14 47.14 0 0 1  330 188.57 L 282.86 141.43 A 47.14 47.14 0 0 0 330 188.57" fill="#2e2766"/><rect x="330" y="141.43" width="47.14" height="47.14" fill="#2b3988"/><path d="M 330 141.43 A 47.14 47.14 0 0 1 377.14 188.57 L 330 188.57" fill="#604a9e"/><rect x="377.14" y="141.43" width="47.14" height="47.14" fill="#252660"/><path d="M 377.14 141.43 A 47.14 47.14 0 0 1 424.28 188.57 L 377.14 188.57" fill="#142356"/><rect x="424.29" y="141.43" width="47.14" height="47.14" fill="#5d4092"/><path d="M 424.29 141.43 A 47.14 47.14 0 0 0 471.43 188.57 L 471.43 141.43" fill="#322868"/><rect x="471.43" y="141.43" width="47.14" height="47.14" fill="#3b2a6e"/><path d="M 471.43 141.43 A 47.14 47.14 0 0 1 518.57 188.57 L 471.43 188.57" fill="#5e4396"/><rect x="0" y="188.57" width="47.14" height="47.14" fill="#5e4396"/><path d="M 0 235.70999999999998 A 47.14 47.14 0 0 0 47.14 188.57 L 0 188.57" fill="#493282"/><rect x="47.14" y="188.57" width="47.14" height="47.14" fill="#572f7f"/><path d="M 47.14 235.70999999999998 A 47.14 47.14 0 0 1  94.28 188.57 L 47.14 235.70999999999998 A 47.14 47.14 0 0 0 94.28 188.57" fill="#604a9d"/><rect x="94.29" y="188.57" width="47.14" height="47.14" fill="#513080"/><path d="M 94.29 188.57 A 47.14 47.14 0 0 1 141.43 235.70999999999998 L 94.29 235.70999999999998" fill="#353686"/><rect x="141.43" y="188.57" width="47.14" height="47.14" fill="#482c75"/><path d="M 141.43 235.70999999999998 A 47.14 47.14 0 0 1  188.57 188.57 L 141.43 235.70999999999998 A 47.14 47.14 0 0 0 188.57 188.57" fill="#593383"/><rect x="188.57" y="188.57" width="47.14" height="47.14" fill="#5e4598"/><path d="M 188.57 188.57 A 47.14 47.14 0 0 0 235.70999999999998 235.70999999999998 L 235.70999999999998 188.57" fill="#2e3887"/><rect x="235.71" y="188.57" width="47.14" height="47.14" fill="#213b8a"/><path d="M 235.71 188.57 A 47.14 47.14 0 0 0 282.85 235.70999999999998 L 282.85 188.57" fill="#5d4093"/><rect x="282.86" y="188.57" width="47.14" height="47.14" fill="#133e8c"/><path d="M 282.86 188.57 A 47.14 47.14 0 0 0 330 235.70999999999998 L 330 188.57" fill="#614ca0"/><rect x="330" y="188.57" width="47.14" height="47.14" fill="#593485"/><path d="M 330 235.70999999999998 A 47.14 47.14 0 0 0 377.14 188.57 L 330 188.57" fill="#03418f"/><rect x="377.14" y="188.57" width="47.14" height="47.14" fill="#2e3887"/><path d="M 377.14 188.57 A 47.14 47.14 0 0 1  424.28 235.70999999999998 L 377.14 188.57 A 47.14 47.14 0 0 0 424.28 235.70999999999998" fill="#583080"/><rect x="424.29" y="188.57" width="47.14" height="47.14" fill="#5d4093"/><path d="M 424.29 188.57 A 47.14 47.14 0 0 1 471.43 235.70999999999998 L 424.29 235.70999999999998" fill="#5b3b8d"/><rect x="471.43" y="188.57" width="47.14" height="47.14" fill="#163d8c"/><path d="M 471.43 235.70999999999998 A 47.14 47.14 0 0 0 518.57 188.57 L 471.43 188.57" fill="#5a3687"/><rect x="0" y="235.71" width="47.14" height="47.14" fill="#2f2866"/><path d="M 0 282.85 A 47.14 47.14 0 0 0 47.14 235.71 L 0 235.71" fill="#4d2d79"/><rect x="47.14" y="235.71" width="47.14" height="47.14" fill="#492c76"/><path d="M 47.14 235.71 A 47.14 47.14 0 0 1  94.28 282.85 L 47.14 235.71 A 47.14 47.14 0 0 0 94.28 282.85" fill="#6457ad"/><rect x="94.29" y="235.71" width="47.14" height="47.14" fill="#273a89"/><path d="M 94.29 282.85 A 47.14 47.14 0 0 0 141.43 235.71 L 94.29 235.71" fill="#4a3282"/><rect x="141.43" y="235.71" width="47.14" height="47.14" fill="#253a89"/><path d="M 141.43 282.85 A 47.14 47.14 0 0 1  188.57 235.71 L 188.57 282.85" fill="#173d8c"/><rect x="188.57" y="235.71" width="47.14" height="47.14" fill="#383685"/><path d="M 188.57 282.85 A 47.14 47.14 0 0 1  235.70999999999998 235.71 L 188.57 282.85 A 47.14 47.14 0 0 0 235.70999999999998 235.71" fill="#182459"/><rect x="235.71" y="235.71" width="47.14" height="47.14" fill="#0e3f8d"/><path d="M 235.71 282.85 A 47.14 47.14 0 0 0 282.85 235.71 L 235.71 235.71" fill="#5e4598"/><rect x="282.86" y="235.71" width="47.14" height="47.14" fill="#323786"/><path d="M 282.86 235.71 A 47.14 47.14 0 0 0 330 282.85 L 330 235.71" fill="#60499d"/><rect x="330" y="235.71" width="47.14" height="47.14" fill="#6250a5"/><path d="M 330 282.85 A 47.14 47.14 0 0 0 377.14 235.71 L 330 235.71" fill="#583080"/><rect x="377.14" y="235.71" width="47.14" height="47.14" fill="#3c3584"/><path d="M 377.14 282.85 A 47.14 47.14 0 0 1  424.28 235.71 L 377.14 282.85 A 47.14 47.14 0 0 0 424.28 235.71" fill="#383685"/><rect x="424.29" y="235.71" width="47.14" height="47.14" fill="#332869"/><path d="M 424.29 282.85 A 47.14 47.14 0 0 0 471.43 235.71 L 424.29 235.71" fill="#4f2d79"/><rect x="471.43" y="235.71" width="47.14" height="47.14" fill="#142356"/><path d="M 471.43 235.71 A 47.14 47.14 0 0 1 518.57 282.85 L 471.43 282.85" fill="#604b9f"/><rect x="0" y="282.86" width="47.14" height="47.14" fill="#143e8c"/><path d="M 0 330 A 47.14 47.14 0 0 1  47.14 282.86 L 47.14 330" fill="#3e3584"/><rect x="47.14" y="282.86" width="47.14" height="47.14" fill="#1a3c8b"/><path d="M 47.14 330 A 47.14 47.14 0 0 1  94.28 282.86 L 47.14 330 A 47.14 47.14 0 0 0 94.28 282.86" fill="#35296a"/><rect x="94.29" y="282.86" width="47.14" height="47.14" fill="#5b398a"/><path d="M 94.29 330 A 47.14 47.14 0 0 1  141.43 282.86 L 141.43 330" fill="#103f8d"/><rect x="141.43" y="282.86" width="47.14" height="47.14" fill="#132255"/><path d="M 141.43 330 A 47.14 47.14 0 0 1  188.57 282.86 L 188.57 330" fill="#493282"/><rect x="188.57" y="282.86" width="47.14" height="47.14" fill="#3d3584"/><path d="M 188.57 330 A 47.14 47.14 0 0 0 235.70999999999998 282.86 L 188.57 282.86" fill="#60499d"/><rect x="235.71" y="282.86" width="47.14" height="47.14" fill="#6250a5"/><path d="M 235.71 330 A 47.14 47.14 0 0 0 282.85 282.86 L 235.71 282.86" fill="#6250a5"/><rect x="282.86" y="282.86" width="47.14" height="47.14" fill="#614ea2"/><path d="M 282.86 282.86 A 47.14 47.14 0 0 1  330 330 L 282.86 282.86 A 47.14 47.14 0 0 0 330 330" fill="#593181"/><rect x="330" y="282.86" width="47.14" height="47.14" fill="#423483"/><path d="M 330 282.86 A 47.14 47.14 0 0 1  377.14 330 L 330 282.86 A 47.14 47.14 0 0 0 377.14 330" fill="#5a3687"/><rect x="377.14" y="282.86" width="47.14" height="47.14" fill="#08214f"/><path d="M 377.14 282.86 A 47.14 47.14 0 0 1  424.28 330 L 377.14 282.86 A 47.14 47.14 0 0 0 424.28 330" fill="#3c2a6e"/><rect x="424.29" y="282.86" width="47.14" height="47.14" fill="#303887"/><path d="M 424.29 330 A 47.14 47.14 0 0 0 471.43 282.86 L 424.29 282.86" fill="#09408e"/><rect x="471.43" y="282.86" width="47.14" height="47.14" fill="#0e2252"/><path d="M 471.43 330 A 47.14 47.14 0 0 1  518.57 282.86 L 518.57 330" fill="#024290"/></g></svg>