<svg width="30" height="39" viewBox="0 0 30 39" fill="none" xmlns="http://www.w3.org/2000/svg">
<path d="M1.49323 34.9254C0.464701 36.211 1.34288 38.0451 2.98934 38.0448C6.3408 38.0444 10.6046 38.0419 10.7301 38.0419C21.0311 38.0419 29.3817 29.5266 29.3817 19.0224C29.3817 8.5183 21.0311 0.00299979 10.7301 0.00299979C10.6008 0.00299979 6.08128 0.000335902 2.69034 3.05265e-05C1.10226 -0.00011249 0.206074 1.72598 1.11678 3.02698L1.82723 4.04192C2.22004 4.60308 2.87206 4.93995 3.55704 4.93936C5.7732 4.93747 10.5699 4.94312 10.7301 4.94312C18.2122 4.94312 24.4416 11.1552 24.4416 19.0224C24.4416 26.8897 18.2122 33.1018 10.7301 33.1018C10.5694 33.1018 6.04487 33.1075 3.96991 33.1055C3.33024 33.1049 2.71569 33.3973 2.31609 33.8968L1.49323 34.9254Z" fill="white"/>
<path d="M6.25038 26.906C5.53152 28.2131 6.44613 29.7612 7.93777 29.7606C9.22238 29.7601 10.4091 29.7593 10.4621 29.7593C16.2729 29.7593 20.9835 24.8675 20.9835 18.8332C20.9835 12.7989 16.2729 7.90717 10.4621 7.90717C10.4091 7.90717 9.12346 7.90637 7.72946 7.90586C6.17279 7.90529 5.26905 9.57177 6.11742 10.8769L6.75754 11.8618C7.15299 12.4701 7.84765 12.8434 8.57326 12.844C9.40925 12.8446 10.3946 12.8473 10.4621 12.8473C13.3705 12.8473 16.0434 15.3499 16.0434 18.8332C16.0434 22.3166 13.3705 24.8192 10.4621 24.8192C10.3973 24.8192 9.4869 24.8216 8.67462 24.8224C7.89609 24.8232 7.15812 25.2556 6.78293 25.9378L6.25038 26.906Z" fill="white"/>
</svg>
